<?xml version="1.0" encoding="UTF-8" standalone="no"?>
<!-- Created with Inkscape (http://www.inkscape.org/) -->

<svg
   width="192"
   height="192"
   viewBox="0 0 192 192"
   version="1.1"
   id="svg1"
   xml:space="preserve"
   inkscape:version="1.4.2 (f4327f4, 2025-05-13)"
   sodipodi:docname="logo.svg"
   xmlns:inkscape="http://www.inkscape.org/namespaces/inkscape"
   xmlns:sodipodi="http://sodipodi.sourceforge.net/DTD/sodipodi-0.dtd"
   xmlns="http://www.w3.org/2000/svg"
   xmlns:svg="http://www.w3.org/2000/svg"><sodipodi:namedview
     id="namedview1"
     pagecolor="#ffffff"
     bordercolor="#000000"
     borderopacity="0.25"
     inkscape:showpageshadow="2"
     inkscape:pageopacity="0.0"
     inkscape:pagecheckerboard="0"
     inkscape:deskcolor="#d1d1d1"
     inkscape:document-units="px"
     inkscape:zoom="1.0092194"
     inkscape:cx="195.69579"
     inkscape:cy="115.93118"
     inkscape:window-width="1440"
     inkscape:window-height="830"
     inkscape:window-x="-6"
     inkscape:window-y="-6"
     inkscape:window-maximized="1"
     inkscape:current-layer="layer1"><inkscape:page
       x="0"
       y="0"
       width="192"
       height="192"
       id="page13"
       margin="0"
       bleed="0" /><inkscape:page
       x="221.37901"
       y="36.197529"
       width="274.39929"
       height="76.587181"
       id="page15"
       margin="0"
       bleed="0" /></sodipodi:namedview><defs
     id="defs1" /><g
     inkscape:label="Layer 1"
     inkscape:groupmode="layer"
     id="layer1"><g
       id="g1"
       transform="matrix(4.0026519,0,0,4.0026519,-48.554609,-47.834135)"><g
         id="color"><path
           id="Socks_Color_1"
           fill="#f4aa41"
           d="m 47.0151,13.4757 c 0.872,3.7029 4.3966,18.78 5.2367,23.4147 0.5558,3.0663 6.243,9.2905 2.2939,12.8615 -1.6463,1.4887 -8.0961,-0.1464 -18.6271,5.7239 A 32.3756,32.3756 0 0 1 24.6,58.6741 2.6468,2.6468 0 0 1 22.77,54.1022 c 2.7678,-2.5 6.9394,-5.1285 9.4506,-7.3386 3.4583,-3.0436 5.4853,-5.7263 6.3283,-8.6978 a 4.2384,4.2384 0 0 0 0.1184,-1.8113 C 38.2931,33.8623 35.2852,21.4185 34.436,18.7831 a 1.1,1.1 0 0 1 0.63,-1.4009 c 1.7238,-0.6 6.8613,-2.6177 8.8566,-3.3288" /><path
           id="Socks_Color_2"
           fill="#f4aa41"
           d="m 43.7336,12.21 c 0.62,3.7533 3.1185,19.0338 3.6437,23.7149 0.3475,3.0968 5.6015,9.6908 1.42,12.987 -1.7431,1.3741 -8.0678,-0.6927 -18.9711,4.4531 A 32.3742,32.3742 0 0 1 18.3171,55.7916 2.6469,2.6469 0 0 1 16.8,51.1065 c 2.93,-2.307 7.27,-4.6481 9.9246,-6.6836 3.6559,-2.8032 5.8594,-5.343 6.9012,-8.2507 a 4.2389,4.2389 0 0 0 0.24,-1.7992 C 33.654,31.961 31.4932,19.343 30.8238,16.6558 a 1.1,1.1 0 0 1 0.7234,-1.3552 c 1.76,-0.4822 7.0224,-2.1484 9.0611,-2.7232" /><path
           id="Socks_Color_3"
           fill="#e27022"
           d="m 29.0586,53.3207 c 0,0 -5.6794,-0.3977 -6.4778,1.4244 -0.3341,0.7626 -0.4158,2.8548 0.2753,3.3192 2.36,1.586 11.24,-1.7383 11.24,-1.7383 L 33.3107,52.6929 32.3032,52.05 Z" /><polygon
           id="Socks_Color_4"
           fill="#e27022"
           points="48.672,44.255 47.997,50.99 54.408,50.403 56.165,46.57 53.042,39.715 " /><path
           id="Socks_Color_5"
           fill="#e27022"
           d="m 23.16,47.2779 c 0,0 -5.6723,2.6932 -6.592,4.4573 -0.3849,0.7383 -0.6076,2.82 0.05,3.33 2.2486,1.7419 11.333,-0.9752 11.333,-0.9752 l -0.5383,-3.6779 z" /><polygon
           id="Socks_Color_6"
           fill="#e27022"
           points="43.309,43.031 42.18,49.704 48.616,49.552 50.628,45.847 47.975,38.796 " /></g><g
         id="line"><path
           id="Socks_Line_1"
           fill="none"
           stroke="#000000"
           stroke-linecap="round"
           stroke-linejoin="round"
           stroke-width="2"
           d="m 43.9388,13.2183 c 0.9837,3.9139 2.5025,19.0774 3.4385,22.7065 0.7783,3.0175 5.0075,9.6808 0.8263,12.977 -1.7431,1.3742 -7.1054,-1.2565 -18.0087,3.8893 -2.0512,0.9681 -7.7537,3.6933 -11.8776,3 -2.1741,-0.3653 -2.6941,-3.918 -1.0469,-5.676 2.55,-2.7214 7.8017,-4.4489 10.4564,-6.4844 3.656,-2.8032 5.1131,-4.4062 6.4073,-7.2107 0.7272,-1.5759 0.0155,-13.8624 -3.3095,-19.7646 a 1.0129,1.0129 0 0 1 0.7234,-1.3552 54.7736,54.7736 0 0 1 9.274,-1.74" /><path
           id="Socks_Line_2"
           fill="none"
           stroke="#000000"
           stroke-linecap="round"
           stroke-linejoin="round"
           stroke-width="2"
           d="m 47.2879,14.468 c 1.2458,3.8385 3.785,18.8648 4.9639,22.4224 0.98,2.9581 5.65,9.3206 1.7006,12.8917 -1.6463,1.4887 -7.174,-0.7739 -17.7049,5.0964 -1.9812,1.1043 -7.4866,4.2084 -11.648,3.7956 -1.46,-0.1449 -2.1551,-1.475 -2.0942,-3.08" /><path
           id="Socks_Line_3"
           fill="none"
           stroke="#000000"
           stroke-linecap="round"
           stroke-linejoin="round"
           stroke-width="2"
           d="m 32.645,51.8587 a 11.4937,11.4937 0 0 1 1.9741,3.9075" /><path
           id="Socks_Line_4"
           fill="none"
           stroke="#000000"
           stroke-linecap="round"
           stroke-linejoin="round"
           stroke-width="2"
           d="m 36.6292,23.3905 a 48.1235,48.1235 0 0 1 6.1619,-1.7889" /><path
           id="Socks_Line_5"
           fill="none"
           stroke="#000000"
           stroke-miterlimit="10"
           stroke-width="2"
           d="m 52.7025,39.7887 a 18.1162,18.1162 0 0 0 -2.6806,2.3687" /><path
           id="Socks_Line_6"
           fill="none"
           stroke="#000000"
           stroke-linecap="round"
           stroke-linejoin="round"
           stroke-width="2"
           d="m 22.8176,46.9215 a 6.6045,6.6045 0 0 1 3.8752,2.4416 13.3326,13.3326 0 0 1 1.8172,4.2037" /><path
           id="Socks_Line_7"
           fill="none"
           stroke="#000000"
           stroke-miterlimit="10"
           stroke-width="2"
           d="M 47.6312,38.8468 A 14.5979,14.5979 0 0 0 43.3518,42.78 c -1.6329,2.7539 -0.9307,6.5283 -0.9307,6.5283" /><path
           id="Socks_Line_8"
           fill="none"
           stroke="#000000"
           stroke-linecap="round"
           stroke-linejoin="round"
           stroke-width="2"
           d="m 45.3691,21.7928 c 0.335,-0.0791 0.6481,-0.1446 0.9274,-0.1912" /></g></g><g
       id="g13"
       transform="matrix(1.5947449,0,0,1.5947449,197.4583,17.038831)"><g
         id="g4"><path
           id="path1"
           fill="#f4aa41"
           d="m 47.0151,13.4757 c 0.872,3.7029 4.3966,18.78 5.2367,23.4147 0.5558,3.0663 6.243,9.2905 2.2939,12.8615 -1.6463,1.4887 -8.0961,-0.1464 -18.6271,5.7239 A 32.3756,32.3756 0 0 1 24.6,58.6741 2.6468,2.6468 0 0 1 22.77,54.1022 c 2.7678,-2.5 6.9394,-5.1285 9.4506,-7.3386 3.4583,-3.0436 5.4853,-5.7263 6.3283,-8.6978 a 4.2384,4.2384 0 0 0 0.1184,-1.8113 C 38.2931,33.8623 35.2852,21.4185 34.436,18.7831 a 1.1,1.1 0 0 1 0.63,-1.4009 c 1.7238,-0.6 6.8613,-2.6177 8.8566,-3.3288" /><path
           id="path2"
           fill="#f4aa41"
           d="m 43.7336,12.21 c 0.62,3.7533 3.1185,19.0338 3.6437,23.7149 0.3475,3.0968 5.6015,9.6908 1.42,12.987 -1.7431,1.3741 -8.0678,-0.6927 -18.9711,4.4531 A 32.3742,32.3742 0 0 1 18.3171,55.7916 2.6469,2.6469 0 0 1 16.8,51.1065 c 2.93,-2.307 7.27,-4.6481 9.9246,-6.6836 3.6559,-2.8032 5.8594,-5.343 6.9012,-8.2507 a 4.2389,4.2389 0 0 0 0.24,-1.7992 C 33.654,31.961 31.4932,19.343 30.8238,16.6558 a 1.1,1.1 0 0 1 0.7234,-1.3552 c 1.76,-0.4822 7.0224,-2.1484 9.0611,-2.7232" /><path
           id="path3"
           fill="#e27022"
           d="m 29.0586,53.3207 c 0,0 -5.6794,-0.3977 -6.4778,1.4244 -0.3341,0.7626 -0.4158,2.8548 0.2753,3.3192 2.36,1.586 11.24,-1.7383 11.24,-1.7383 L 33.3107,52.6929 32.3032,52.05 Z" /><polygon
           id="polygon3"
           fill="#e27022"
           points="56.165,46.57 53.042,39.715 48.672,44.255 47.997,50.99 54.408,50.403 " /><path
           id="path4"
           fill="#e27022"
           d="m 23.16,47.2779 c 0,0 -5.6723,2.6932 -6.592,4.4573 -0.3849,0.7383 -0.6076,2.82 0.05,3.33 2.2486,1.7419 11.333,-0.9752 11.333,-0.9752 l -0.5383,-3.6779 z" /><polygon
           id="polygon4"
           fill="#e27022"
           points="50.628,45.847 47.975,38.796 43.309,43.031 42.18,49.704 48.616,49.552 " /></g><g
         id="g12"><path
           id="path5"
           fill="none"
           stroke="#000000"
           stroke-linecap="round"
           stroke-linejoin="round"
           stroke-width="2"
           d="m 43.9388,13.2183 c 0.9837,3.9139 2.5025,19.0774 3.4385,22.7065 0.7783,3.0175 5.0075,9.6808 0.8263,12.977 -1.7431,1.3742 -7.1054,-1.2565 -18.0087,3.8893 -2.0512,0.9681 -7.7537,3.6933 -11.8776,3 -2.1741,-0.3653 -2.6941,-3.918 -1.0469,-5.676 2.55,-2.7214 7.8017,-4.4489 10.4564,-6.4844 3.656,-2.8032 5.1131,-4.4062 6.4073,-7.2107 0.7272,-1.5759 0.0155,-13.8624 -3.3095,-19.7646 a 1.0129,1.0129 0 0 1 0.7234,-1.3552 54.7736,54.7736 0 0 1 9.274,-1.74" /><path
           id="path6"
           fill="none"
           stroke="#000000"
           stroke-linecap="round"
           stroke-linejoin="round"
           stroke-width="2"
           d="m 47.2879,14.468 c 1.2458,3.8385 3.785,18.8648 4.9639,22.4224 0.98,2.9581 5.65,9.3206 1.7006,12.8917 -1.6463,1.4887 -7.174,-0.7739 -17.7049,5.0964 -1.9812,1.1043 -7.4866,4.2084 -11.648,3.7956 -1.46,-0.1449 -2.1551,-1.475 -2.0942,-3.08" /><path
           id="path7"
           fill="none"
           stroke="#000000"
           stroke-linecap="round"
           stroke-linejoin="round"
           stroke-width="2"
           d="m 32.645,51.8587 a 11.4937,11.4937 0 0 1 1.9741,3.9075" /><path
           id="path8"
           fill="none"
           stroke="#000000"
           stroke-linecap="round"
           stroke-linejoin="round"
           stroke-width="2"
           d="m 36.6292,23.3905 a 48.1235,48.1235 0 0 1 6.1619,-1.7889" /><path
           id="path9"
           fill="none"
           stroke="#000000"
           stroke-miterlimit="10"
           stroke-width="2"
           d="m 52.7025,39.7887 a 18.1162,18.1162 0 0 0 -2.6806,2.3687" /><path
           id="path10"
           fill="none"
           stroke="#000000"
           stroke-linecap="round"
           stroke-linejoin="round"
           stroke-width="2"
           d="m 22.8176,46.9215 a 6.6045,6.6045 0 0 1 3.8752,2.4416 13.3326,13.3326 0 0 1 1.8172,4.2037" /><path
           id="path11"
           fill="none"
           stroke="#000000"
           stroke-miterlimit="10"
           stroke-width="2"
           d="M 47.6312,38.8468 A 14.5979,14.5979 0 0 0 43.3518,42.78 c -1.6329,2.7539 -0.9307,6.5283 -0.9307,6.5283" /><path
           id="path12"
           fill="none"
           stroke="#000000"
           stroke-linecap="round"
           stroke-linejoin="round"
           stroke-width="2"
           d="m 45.3691,21.7928 c 0.335,-0.0791 0.6481,-0.1446 0.9274,-0.1912" /></g></g><text
       xml:space="preserve"
       style="font-style:normal;font-variant:normal;font-weight:normal;font-stretch:normal;font-size:96px;font-family:Consolas;-inkscape-font-specification:'Consolas, Normal';font-variant-ligatures:normal;font-variant-caps:normal;font-variant-numeric:normal;font-variant-east-asian:normal;text-align:start;writing-mode:lr-tb;direction:ltr;text-anchor:start;fill:#000000;stroke-width:1.54677"
       x="290.79462"
       y="98.269798"
       id="text13"><tspan
         sodipodi:role="line"
         id="tspan13"
         x="290.79462"
         y="98.269798"
         style="font-style:normal;font-variant:normal;font-weight:normal;font-stretch:normal;font-size:96px;font-family:Consolas;-inkscape-font-specification:'Consolas, Normal';font-variant-ligatures:normal;font-variant-caps:normal;font-variant-numeric:normal;font-variant-east-asian:normal;stroke-width:1.54677">Worn</tspan></text></g></svg>
